<svg width="160" height="22" viewBox="0 0 160 22" fill="none" xmlns="http://www.w3.org/2000/svg">
<path d="M0 22L2.9641 17.3422H20.1558C21.1298 17.3422 21.7649 16.7183 21.7649 15.7618V13.0586H6.98678C2.58299 13.0586 0.635152 11.1456 0.635152 6.9036V5.07373C0.635168 1.91304 2.54066 0 5.54709 0H5.88584V6.82041C5.88584 7.77694 6.52101 8.40075 7.49491 8.40075H21.8072C25.0677 8.40075 27.0156 10.3138 27.0156 13.4329V15.845C27.0156 19.9622 24.9407 22 20.664 22H0V22ZM103.021 17.259H116.317C118.519 17.259 119.916 15.9282 119.916 13.8488V8.15124C119.916 6.07184 118.519 4.74103 116.317 4.74103H103.021V17.259ZM97.6852 22V0H116.444C122.033 0 125.251 3.16068 125.251 8.40076V13.5993C125.251 18.8393 122.033 22 116.444 22H97.6852V22ZM71.8294 17.259H83.0506C85.0832 17.259 86.3958 16.0113 86.3958 14.0567V7.94329C86.3958 5.98865 85.0831 4.74102 83.0506 4.74102H71.8294C69.7969 4.74102 68.4842 5.98865 68.4842 7.94329V14.0567C68.4842 16.0113 69.7969 17.259 71.8294 17.259ZM83.1776 22H71.7024C66.2823 22 63.1488 18.9225 63.1488 13.8072V8.19282C63.1488 3.0775 66.2823 0 71.7024 0H83.1776C88.5977 0 91.7312 3.0775 91.7312 8.19282V13.8072C91.7312 18.9225 88.5977 22 83.1776 22ZM127.437 22L140.014 0H147.424L160 22H153.902L151.743 18.2155H141.03L138.15 13.724L133.408 22H127.437ZM138.277 13.4745H149.033L143.655 4.11721L138.277 13.4745ZM11.1365 4.57466L8.08774 0H26.5075L23.5434 4.57466H11.1365ZM32.8866 22V0H38.222V8.56711H45.2934L54.4821 0H61.5536L49.8666 10.9376L61.7653 22H54.2704L45.0817 13.3081H38.222V22H32.8866H32.8866Z" fill="#78FAAE"/>
</svg>
